<?xml version="1.0" encoding="UTF-8" ?>
<svg version="1.1" width="192" height="32" xmlns="http://www.w3.org/2000/svg" shape-rendering="crispEdges">
<rect x="13" y="1" width="1" height="1" fill="#6AB347" />
<rect x="45" y="1" width="1" height="1" fill="#6AB347" />
<rect x="77" y="1" width="1" height="1" fill="#6AB347" />
<rect x="114" y="1" width="1" height="1" fill="#6AB347" />
<rect x="146" y="1" width="1" height="1" fill="#6AB347" />
<rect x="178" y="1" width="1" height="1" fill="#6AB347" />
<rect x="7" y="2" width="1" height="1" fill="#6AB347" />
<rect x="12" y="2" width="1" height="1" fill="#6AB347" />
<rect x="21" y="2" width="1" height="1" fill="#6AB347" />
<rect x="39" y="2" width="1" height="1" fill="#6AB347" />
<rect x="44" y="2" width="1" height="1" fill="#6AB347" />
<rect x="53" y="2" width="1" height="1" fill="#6AB347" />
<rect x="71" y="2" width="1" height="1" fill="#6AB347" />
<rect x="76" y="2" width="1" height="1" fill="#6AB347" />
<rect x="85" y="2" width="1" height="1" fill="#6AB347" />
<rect x="106" y="2" width="1" height="1" fill="#6AB347" />
<rect x="115" y="2" width="1" height="1" fill="#6AB347" />
<rect x="120" y="2" width="1" height="1" fill="#6AB347" />
<rect x="138" y="2" width="1" height="1" fill="#6AB347" />
<rect x="147" y="2" width="1" height="1" fill="#6AB347" />
<rect x="152" y="2" width="1" height="1" fill="#6AB347" />
<rect x="170" y="2" width="1" height="1" fill="#6AB347" />
<rect x="179" y="2" width="1" height="1" fill="#6AB347" />
<rect x="184" y="2" width="1" height="1" fill="#6AB347" />
<rect x="6" y="3" width="1" height="1" fill="#6AB347" />
<rect x="13" y="3" width="1" height="1" fill="#6AB347" />
<rect x="20" y="3" width="1" height="1" fill="#6AB347" />
<rect x="24" y="3" width="1" height="1" fill="#6AB347" />
<rect x="38" y="3" width="1" height="1" fill="#6AB347" />
<rect x="45" y="3" width="1" height="1" fill="#6AB347" />
<rect x="52" y="3" width="1" height="1" fill="#6AB347" />
<rect x="56" y="3" width="1" height="1" fill="#6AB347" />
<rect x="70" y="3" width="1" height="1" fill="#6AB347" />
<rect x="77" y="3" width="1" height="1" fill="#6AB347" />
<rect x="84" y="3" width="1" height="1" fill="#6AB347" />
<rect x="88" y="3" width="1" height="1" fill="#6AB347" />
<rect x="103" y="3" width="1" height="1" fill="#6AB347" />
<rect x="107" y="3" width="1" height="1" fill="#6AB347" />
<rect x="114" y="3" width="1" height="1" fill="#6AB347" />
<rect x="121" y="3" width="1" height="1" fill="#6AB347" />
<rect x="135" y="3" width="1" height="1" fill="#6AB347" />
<rect x="139" y="3" width="1" height="1" fill="#6AB347" />
<rect x="146" y="3" width="1" height="1" fill="#6AB347" />
<rect x="153" y="3" width="1" height="1" fill="#6AB347" />
<rect x="167" y="3" width="1" height="1" fill="#6AB347" />
<rect x="171" y="3" width="1" height="1" fill="#6AB347" />
<rect x="178" y="3" width="1" height="1" fill="#6AB347" />
<rect x="185" y="3" width="1" height="1" fill="#6AB347" />
<rect x="5" y="4" width="1" height="1" fill="#6AB347" />
<rect x="14" y="4" width="1" height="2" fill="#6AB347" />
<rect x="19" y="4" width="1" height="1" fill="#6AB347" />
<rect x="23" y="4" width="1" height="1" fill="#6AB347" />
<rect x="37" y="4" width="1" height="1" fill="#6AB347" />
<rect x="46" y="4" width="1" height="2" fill="#6AB347" />
<rect x="51" y="4" width="1" height="1" fill="#6AB347" />
<rect x="55" y="4" width="1" height="1" fill="#6AB347" />
<rect x="69" y="4" width="1" height="1" fill="#6AB347" />
<rect x="78" y="4" width="1" height="2" fill="#6AB347" />
<rect x="83" y="4" width="1" height="1" fill="#6AB347" />
<rect x="87" y="4" width="1" height="1" fill="#6AB347" />
<rect x="104" y="4" width="1" height="1" fill="#6AB347" />
<rect x="108" y="4" width="1" height="1" fill="#6AB347" />
<rect x="113" y="4" width="1" height="2" fill="#6AB347" />
<rect x="122" y="4" width="1" height="1" fill="#6AB347" />
<rect x="136" y="4" width="1" height="1" fill="#6AB347" />
<rect x="140" y="4" width="1" height="1" fill="#6AB347" />
<rect x="145" y="4" width="1" height="2" fill="#6AB347" />
<rect x="154" y="4" width="1" height="1" fill="#6AB347" />
<rect x="168" y="4" width="1" height="1" fill="#6AB347" />
<rect x="172" y="4" width="1" height="1" fill="#6AB347" />
<rect x="177" y="4" width="1" height="2" fill="#6AB347" />
<rect x="186" y="4" width="1" height="1" fill="#6AB347" />
<rect x="6" y="5" width="1" height="4" fill="#6AB347" />
<rect x="20" y="5" width="1" height="1" fill="#6AB347" />
<rect x="24" y="5" width="1" height="3" fill="#6AB347" />
<rect x="38" y="5" width="1" height="4" fill="#6AB347" />
<rect x="52" y="5" width="1" height="1" fill="#6AB347" />
<rect x="56" y="5" width="1" height="3" fill="#6AB347" />
<rect x="70" y="5" width="1" height="4" fill="#6AB347" />
<rect x="84" y="5" width="1" height="1" fill="#6AB347" />
<rect x="88" y="5" width="1" height="3" fill="#6AB347" />
<rect x="103" y="5" width="1" height="3" fill="#6AB347" />
<rect x="107" y="5" width="1" height="1" fill="#6AB347" />
<rect x="121" y="5" width="1" height="4" fill="#6AB347" />
<rect x="135" y="5" width="1" height="3" fill="#6AB347" />
<rect x="139" y="5" width="1" height="1" fill="#6AB347" />
<rect x="153" y="5" width="1" height="4" fill="#6AB347" />
<rect x="167" y="5" width="1" height="3" fill="#6AB347" />
<rect x="171" y="5" width="1" height="1" fill="#6AB347" />
<rect x="185" y="5" width="1" height="4" fill="#6AB347" />
<rect x="15" y="6" width="1" height="1" fill="#6AB347" />
<rect x="19" y="6" width="1" height="2" fill="#6AB347" />
<rect x="47" y="6" width="1" height="1" fill="#6AB347" />
<rect x="51" y="6" width="1" height="2" fill="#6AB347" />
<rect x="79" y="6" width="1" height="1" fill="#6AB347" />
<rect x="83" y="6" width="1" height="2" fill="#6AB347" />
<rect x="108" y="6" width="1" height="2" fill="#6AB347" />
<rect x="112" y="6" width="1" height="1" fill="#6AB347" />
<rect x="140" y="6" width="1" height="2" fill="#6AB347" />
<rect x="144" y="6" width="1" height="1" fill="#6AB347" />
<rect x="172" y="6" width="1" height="2" fill="#6AB347" />
<rect x="176" y="6" width="1" height="1" fill="#6AB347" />
<rect x="14" y="7" width="1" height="2" fill="#6AB347" />
<rect x="46" y="7" width="1" height="2" fill="#6AB347" />
<rect x="78" y="7" width="1" height="2" fill="#6AB347" />
<rect x="113" y="7" width="1" height="2" fill="#6AB347" />
<rect x="145" y="7" width="1" height="2" fill="#6AB347" />
<rect x="177" y="7" width="1" height="2" fill="#6AB347" />
<rect x="18" y="8" width="1" height="1" fill="#6AB347" />
<rect x="25" y="8" width="1" height="1" fill="#6AB347" />
<rect x="50" y="8" width="1" height="1" fill="#6AB347" />
<rect x="57" y="8" width="1" height="1" fill="#6AB347" />
<rect x="82" y="8" width="1" height="1" fill="#6AB347" />
<rect x="89" y="8" width="1" height="1" fill="#6AB347" />
<rect x="102" y="8" width="1" height="1" fill="#6AB347" />
<rect x="109" y="8" width="1" height="1" fill="#6AB347" />
<rect x="134" y="8" width="1" height="1" fill="#6AB347" />
<rect x="141" y="8" width="1" height="1" fill="#6AB347" />
<rect x="166" y="8" width="1" height="1" fill="#6AB347" />
<rect x="173" y="8" width="1" height="1" fill="#6AB347" />
<rect x="7" y="9" width="1" height="1" fill="#6AB347" />
<rect x="19" y="9" width="1" height="1" fill="#6AB347" />
<rect x="26" y="9" width="1" height="2" fill="#6AB347" />
<rect x="39" y="9" width="1" height="1" fill="#6AB347" />
<rect x="51" y="9" width="1" height="1" fill="#6AB347" />
<rect x="58" y="9" width="1" height="2" fill="#6AB347" />
<rect x="71" y="9" width="1" height="1" fill="#6AB347" />
<rect x="83" y="9" width="1" height="1" fill="#6AB347" />
<rect x="90" y="9" width="1" height="2" fill="#6AB347" />
<rect x="101" y="9" width="1" height="2" fill="#6AB347" />
<rect x="108" y="9" width="1" height="1" fill="#6AB347" />
<rect x="120" y="9" width="1" height="1" fill="#6AB347" />
<rect x="133" y="9" width="1" height="2" fill="#6AB347" />
<rect x="140" y="9" width="1" height="1" fill="#6AB347" />
<rect x="152" y="9" width="1" height="1" fill="#6AB347" />
<rect x="165" y="9" width="1" height="2" fill="#6AB347" />
<rect x="172" y="9" width="1" height="1" fill="#6AB347" />
<rect x="184" y="9" width="1" height="1" fill="#6AB347" />
<rect x="8" y="10" width="1" height="1" fill="#6AB347" />
<rect x="40" y="10" width="1" height="1" fill="#6AB347" />
<rect x="72" y="10" width="1" height="1" fill="#6AB347" />
<rect x="119" y="10" width="1" height="1" fill="#6AB347" />
<rect x="151" y="10" width="1" height="1" fill="#6AB347" />
<rect x="183" y="10" width="1" height="1" fill="#6AB347" />
<rect x="7" y="11" width="1" height="1" fill="#6AB347" />
<rect x="25" y="11" width="1" height="1" fill="#6AB347" />
<rect x="39" y="11" width="1" height="1" fill="#6AB347" />
<rect x="57" y="11" width="1" height="1" fill="#6AB347" />
<rect x="71" y="11" width="1" height="1" fill="#6AB347" />
<rect x="89" y="11" width="1" height="1" fill="#6AB347" />
<rect x="102" y="11" width="1" height="1" fill="#6AB347" />
<rect x="120" y="11" width="1" height="1" fill="#6AB347" />
<rect x="134" y="11" width="1" height="1" fill="#6AB347" />
<rect x="152" y="11" width="1" height="1" fill="#6AB347" />
<rect x="166" y="11" width="1" height="1" fill="#6AB347" />
<rect x="184" y="11" width="1" height="1" fill="#6AB347" />
<rect x="8" y="12" width="1" height="2" fill="#6AB347" />
<rect x="15" y="12" width="2" height="1" fill="#4D231C" />
<rect x="24" y="12" width="1" height="3" fill="#6AB347" />
<rect x="40" y="12" width="1" height="2" fill="#6AB347" />
<rect x="47" y="12" width="2" height="1" fill="#4D231C" />
<rect x="56" y="12" width="1" height="3" fill="#6AB347" />
<rect x="72" y="12" width="1" height="2" fill="#6AB347" />
<rect x="79" y="12" width="2" height="1" fill="#4D231C" />
<rect x="88" y="12" width="1" height="3" fill="#6AB347" />
<rect x="103" y="12" width="1" height="3" fill="#6AB347" />
<rect x="111" y="12" width="2" height="1" fill="#4D231C" />
<rect x="119" y="12" width="1" height="2" fill="#6AB347" />
<rect x="135" y="12" width="1" height="3" fill="#6AB347" />
<rect x="143" y="12" width="2" height="1" fill="#4D231C" />
<rect x="151" y="12" width="1" height="2" fill="#6AB347" />
<rect x="167" y="12" width="1" height="3" fill="#6AB347" />
<rect x="175" y="12" width="2" height="1" fill="#4D231C" />
<rect x="183" y="12" width="1" height="2" fill="#6AB347" />
<rect x="13" y="13" width="2" height="1" fill="#4D231C" />
<rect x="15" y="13" width="2" height="1" fill="#DC8560" />
<rect x="17" y="13" width="2" height="1" fill="#4D231C" />
<rect x="45" y="13" width="2" height="1" fill="#4D231C" />
<rect x="47" y="13" width="2" height="1" fill="#DC8560" />
<rect x="49" y="13" width="2" height="1" fill="#4D231C" />
<rect x="77" y="13" width="2" height="1" fill="#4D231C" />
<rect x="79" y="13" width="2" height="1" fill="#DC8560" />
<rect x="81" y="13" width="2" height="1" fill="#4D231C" />
<rect x="109" y="13" width="2" height="1" fill="#4D231C" />
<rect x="111" y="13" width="2" height="1" fill="#DC8560" />
<rect x="113" y="13" width="2" height="1" fill="#4D231C" />
<rect x="141" y="13" width="2" height="1" fill="#4D231C" />
<rect x="143" y="13" width="2" height="1" fill="#DC8560" />
<rect x="145" y="13" width="2" height="1" fill="#4D231C" />
<rect x="173" y="13" width="2" height="1" fill="#4D231C" />
<rect x="175" y="13" width="2" height="1" fill="#DC8560" />
<rect x="177" y="13" width="2" height="1" fill="#4D231C" />
<rect x="12" y="14" width="1" height="1" fill="#4D231C" />
<rect x="13" y="14" width="1" height="2" fill="#DC8560" />
<rect x="14" y="14" width="4" height="3" fill="#622D24" />
<rect x="18" y="14" width="1" height="2" fill="#DC8560" />
<rect x="19" y="14" width="1" height="1" fill="#4D231C" />
<rect x="44" y="14" width="1" height="1" fill="#4D231C" />
<rect x="45" y="14" width="1" height="2" fill="#DC8560" />
<rect x="46" y="14" width="4" height="3" fill="#622D24" />
<rect x="50" y="14" width="1" height="2" fill="#DC8560" />
<rect x="51" y="14" width="1" height="1" fill="#4D231C" />
<rect x="76" y="14" width="1" height="1" fill="#4D231C" />
<rect x="77" y="14" width="1" height="2" fill="#DC8560" />
<rect x="78" y="14" width="4" height="3" fill="#622D24" />
<rect x="82" y="14" width="1" height="2" fill="#DC8560" />
<rect x="83" y="14" width="1" height="1" fill="#4D231C" />
<rect x="108" y="14" width="1" height="1" fill="#4D231C" />
<rect x="109" y="14" width="1" height="2" fill="#DC8560" />
<rect x="110" y="14" width="4" height="3" fill="#622D24" />
<rect x="114" y="14" width="1" height="2" fill="#DC8560" />
<rect x="115" y="14" width="1" height="1" fill="#4D231C" />
<rect x="140" y="14" width="1" height="1" fill="#4D231C" />
<rect x="141" y="14" width="1" height="2" fill="#DC8560" />
<rect x="142" y="14" width="4" height="3" fill="#622D24" />
<rect x="146" y="14" width="1" height="2" fill="#DC8560" />
<rect x="147" y="14" width="1" height="1" fill="#4D231C" />
<rect x="172" y="14" width="1" height="1" fill="#4D231C" />
<rect x="173" y="14" width="1" height="2" fill="#DC8560" />
<rect x="174" y="14" width="4" height="3" fill="#622D24" />
<rect x="178" y="14" width="1" height="2" fill="#DC8560" />
<rect x="179" y="14" width="1" height="1" fill="#4D231C" />
<rect x="11" y="15" width="1" height="1" fill="#4D231C" />
<rect x="12" y="15" width="1" height="8" fill="#622D24" />
<rect x="19" y="15" width="1" height="8" fill="#622D24" />
<rect x="20" y="15" width="1" height="1" fill="#4D231C" />
<rect x="43" y="15" width="1" height="1" fill="#4D231C" />
<rect x="44" y="15" width="1" height="8" fill="#622D24" />
<rect x="51" y="15" width="1" height="8" fill="#622D24" />
<rect x="52" y="15" width="1" height="1" fill="#4D231C" />
<rect x="75" y="15" width="1" height="1" fill="#4D231C" />
<rect x="76" y="15" width="1" height="8" fill="#622D24" />
<rect x="83" y="15" width="1" height="8" fill="#622D24" />
<rect x="84" y="15" width="1" height="1" fill="#4D231C" />
<rect x="107" y="15" width="1" height="1" fill="#4D231C" />
<rect x="108" y="15" width="1" height="8" fill="#622D24" />
<rect x="115" y="15" width="1" height="8" fill="#622D24" />
<rect x="116" y="15" width="1" height="1" fill="#4D231C" />
<rect x="139" y="15" width="1" height="1" fill="#4D231C" />
<rect x="140" y="15" width="1" height="8" fill="#622D24" />
<rect x="147" y="15" width="1" height="8" fill="#622D24" />
<rect x="148" y="15" width="1" height="1" fill="#4D231C" />
<rect x="171" y="15" width="1" height="1" fill="#4D231C" />
<rect x="172" y="15" width="1" height="8" fill="#622D24" />
<rect x="179" y="15" width="1" height="8" fill="#622D24" />
<rect x="180" y="15" width="1" height="1" fill="#4D231C" />
<rect x="10" y="16" width="1" height="2" fill="#4D231C" />
<rect x="11" y="16" width="1" height="7" fill="#622D24" />
<rect x="13" y="16" width="1" height="7" fill="#622D24" />
<rect x="18" y="16" width="1" height="7" fill="#622D24" />
<rect x="20" y="16" width="1" height="7" fill="#622D24" />
<rect x="21" y="16" width="1" height="2" fill="#4D231C" />
<rect x="42" y="16" width="1" height="2" fill="#4D231C" />
<rect x="43" y="16" width="1" height="7" fill="#622D24" />
<rect x="45" y="16" width="1" height="7" fill="#622D24" />
<rect x="50" y="16" width="1" height="7" fill="#622D24" />
<rect x="52" y="16" width="1" height="7" fill="#622D24" />
<rect x="53" y="16" width="1" height="2" fill="#4D231C" />
<rect x="74" y="16" width="1" height="2" fill="#4D231C" />
<rect x="75" y="16" width="1" height="7" fill="#622D24" />
<rect x="77" y="16" width="1" height="7" fill="#622D24" />
<rect x="82" y="16" width="1" height="7" fill="#622D24" />
<rect x="84" y="16" width="1" height="7" fill="#622D24" />
<rect x="85" y="16" width="1" height="2" fill="#4D231C" />
<rect x="106" y="16" width="1" height="2" fill="#4D231C" />
<rect x="107" y="16" width="1" height="7" fill="#622D24" />
<rect x="109" y="16" width="1" height="7" fill="#622D24" />
<rect x="114" y="16" width="1" height="7" fill="#622D24" />
<rect x="116" y="16" width="1" height="7" fill="#622D24" />
<rect x="117" y="16" width="1" height="2" fill="#4D231C" />
<rect x="138" y="16" width="1" height="2" fill="#4D231C" />
<rect x="139" y="16" width="1" height="7" fill="#622D24" />
<rect x="141" y="16" width="1" height="7" fill="#622D24" />
<rect x="146" y="16" width="1" height="7" fill="#622D24" />
<rect x="148" y="16" width="1" height="7" fill="#622D24" />
<rect x="149" y="16" width="1" height="2" fill="#4D231C" />
<rect x="170" y="16" width="1" height="2" fill="#4D231C" />
<rect x="171" y="16" width="1" height="7" fill="#622D24" />
<rect x="173" y="16" width="1" height="7" fill="#622D24" />
<rect x="178" y="16" width="1" height="7" fill="#622D24" />
<rect x="180" y="16" width="1" height="7" fill="#622D24" />
<rect x="181" y="16" width="1" height="2" fill="#4D231C" />
<rect x="14" y="17" width="1" height="3" fill="#4D231C" />
<rect x="15" y="17" width="2" height="6" fill="#622D24" />
<rect x="17" y="17" width="1" height="3" fill="#4D231C" />
<rect x="46" y="17" width="1" height="3" fill="#4D231C" />
<rect x="47" y="17" width="2" height="6" fill="#622D24" />
<rect x="49" y="17" width="1" height="3" fill="#4D231C" />
<rect x="78" y="17" width="1" height="3" fill="#4D231C" />
<rect x="79" y="17" width="2" height="6" fill="#622D24" />
<rect x="81" y="17" width="1" height="3" fill="#4D231C" />
<rect x="110" y="17" width="1" height="3" fill="#4D231C" />
<rect x="111" y="17" width="2" height="6" fill="#622D24" />
<rect x="113" y="17" width="1" height="3" fill="#4D231C" />
<rect x="142" y="17" width="1" height="3" fill="#4D231C" />
<rect x="143" y="17" width="2" height="6" fill="#622D24" />
<rect x="145" y="17" width="1" height="3" fill="#4D231C" />
<rect x="174" y="17" width="1" height="3" fill="#4D231C" />
<rect x="175" y="17" width="2" height="6" fill="#622D24" />
<rect x="177" y="17" width="1" height="3" fill="#4D231C" />
<rect x="9" y="18" width="1" height="2" fill="#4D231C" />
<rect x="10" y="18" width="1" height="2" fill="#622D24" />
<rect x="21" y="18" width="1" height="2" fill="#622D24" />
<rect x="22" y="18" width="1" height="2" fill="#4D231C" />
<rect x="41" y="18" width="1" height="2" fill="#4D231C" />
<rect x="42" y="18" width="1" height="2" fill="#622D24" />
<rect x="53" y="18" width="1" height="2" fill="#622D24" />
<rect x="54" y="18" width="1" height="2" fill="#4D231C" />
<rect x="73" y="18" width="1" height="2" fill="#4D231C" />
<rect x="74" y="18" width="1" height="2" fill="#622D24" />
<rect x="85" y="18" width="1" height="2" fill="#622D24" />
<rect x="86" y="18" width="1" height="2" fill="#4D231C" />
<rect x="105" y="18" width="1" height="2" fill="#4D231C" />
<rect x="106" y="18" width="1" height="2" fill="#622D24" />
<rect x="117" y="18" width="1" height="2" fill="#622D24" />
<rect x="118" y="18" width="1" height="2" fill="#4D231C" />
<rect x="137" y="18" width="1" height="2" fill="#4D231C" />
<rect x="138" y="18" width="1" height="2" fill="#622D24" />
<rect x="149" y="18" width="1" height="2" fill="#622D24" />
<rect x="150" y="18" width="1" height="2" fill="#4D231C" />
<rect x="169" y="18" width="1" height="2" fill="#4D231C" />
<rect x="170" y="18" width="1" height="2" fill="#622D24" />
<rect x="181" y="18" width="1" height="2" fill="#622D24" />
<rect x="182" y="18" width="1" height="2" fill="#4D231C" />
<rect x="8" y="20" width="1" height="1" fill="#4D231C" />
<rect x="9" y="20" width="2" height="1" fill="#DC8560" />
<rect x="14" y="20" width="1" height="3" fill="#622D24" />
<rect x="17" y="20" width="1" height="3" fill="#622D24" />
<rect x="21" y="20" width="2" height="1" fill="#DC8560" />
<rect x="23" y="20" width="1" height="1" fill="#4D231C" />
<rect x="40" y="20" width="1" height="1" fill="#4D231C" />
<rect x="41" y="20" width="2" height="1" fill="#DC8560" />
<rect x="46" y="20" width="1" height="3" fill="#622D24" />
<rect x="49" y="20" width="1" height="3" fill="#622D24" />
<rect x="53" y="20" width="2" height="1" fill="#DC8560" />
<rect x="55" y="20" width="1" height="1" fill="#4D231C" />
<rect x="72" y="20" width="1" height="1" fill="#4D231C" />
<rect x="73" y="20" width="2" height="1" fill="#DC8560" />
<rect x="78" y="20" width="1" height="3" fill="#622D24" />
<rect x="81" y="20" width="1" height="3" fill="#622D24" />
<rect x="85" y="20" width="2" height="1" fill="#DC8560" />
<rect x="87" y="20" width="1" height="1" fill="#4D231C" />
<rect x="104" y="20" width="1" height="1" fill="#4D231C" />
<rect x="105" y="20" width="2" height="1" fill="#DC8560" />
<rect x="110" y="20" width="1" height="3" fill="#622D24" />
<rect x="113" y="20" width="1" height="3" fill="#622D24" />
<rect x="117" y="20" width="2" height="1" fill="#DC8560" />
<rect x="119" y="20" width="1" height="1" fill="#4D231C" />
<rect x="136" y="20" width="1" height="1" fill="#4D231C" />
<rect x="137" y="20" width="2" height="1" fill="#DC8560" />
<rect x="142" y="20" width="1" height="3" fill="#622D24" />
<rect x="145" y="20" width="1" height="3" fill="#622D24" />
<rect x="149" y="20" width="2" height="1" fill="#DC8560" />
<rect x="151" y="20" width="1" height="1" fill="#4D231C" />
<rect x="168" y="20" width="1" height="1" fill="#4D231C" />
<rect x="169" y="20" width="2" height="1" fill="#DC8560" />
<rect x="174" y="20" width="1" height="3" fill="#622D24" />
<rect x="177" y="20" width="1" height="3" fill="#622D24" />
<rect x="181" y="20" width="2" height="1" fill="#DC8560" />
<rect x="183" y="20" width="1" height="1" fill="#4D231C" />
<rect x="7" y="21" width="1" height="1" fill="#4D231C" />
<rect x="8" y="21" width="3" height="2" fill="#622D24" />
<rect x="21" y="21" width="3" height="2" fill="#622D24" />
<rect x="24" y="21" width="1" height="1" fill="#4D231C" />
<rect x="39" y="21" width="1" height="1" fill="#4D231C" />
<rect x="40" y="21" width="3" height="2" fill="#622D24" />
<rect x="53" y="21" width="3" height="2" fill="#622D24" />
<rect x="56" y="21" width="1" height="1" fill="#4D231C" />
<rect x="71" y="21" width="1" height="1" fill="#4D231C" />
<rect x="72" y="21" width="3" height="2" fill="#622D24" />
<rect x="85" y="21" width="3" height="2" fill="#622D24" />
<rect x="88" y="21" width="1" height="1" fill="#4D231C" />
<rect x="103" y="21" width="1" height="1" fill="#4D231C" />
<rect x="104" y="21" width="3" height="2" fill="#622D24" />
<rect x="117" y="21" width="3" height="2" fill="#622D24" />
<rect x="120" y="21" width="1" height="1" fill="#4D231C" />
<rect x="135" y="21" width="1" height="1" fill="#4D231C" />
<rect x="136" y="21" width="3" height="2" fill="#622D24" />
<rect x="149" y="21" width="3" height="2" fill="#622D24" />
<rect x="152" y="21" width="1" height="1" fill="#4D231C" />
<rect x="167" y="21" width="1" height="1" fill="#4D231C" />
<rect x="168" y="21" width="3" height="2" fill="#622D24" />
<rect x="181" y="21" width="3" height="2" fill="#622D24" />
<rect x="184" y="21" width="1" height="1" fill="#4D231C" />
<rect x="6" y="22" width="1" height="3" fill="#4D231C" />
<rect x="7" y="22" width="1" height="3" fill="#DC8560" />
<rect x="24" y="22" width="1" height="3" fill="#DC8560" />
<rect x="25" y="22" width="1" height="3" fill="#4D231C" />
<rect x="38" y="22" width="1" height="3" fill="#4D231C" />
<rect x="39" y="22" width="1" height="3" fill="#DC8560" />
<rect x="56" y="22" width="1" height="3" fill="#DC8560" />
<rect x="57" y="22" width="1" height="3" fill="#4D231C" />
<rect x="70" y="22" width="1" height="3" fill="#4D231C" />
<rect x="71" y="22" width="1" height="3" fill="#DC8560" />
<rect x="88" y="22" width="1" height="3" fill="#DC8560" />
<rect x="89" y="22" width="1" height="3" fill="#4D231C" />
<rect x="102" y="22" width="1" height="3" fill="#4D231C" />
<rect x="103" y="22" width="1" height="3" fill="#DC8560" />
<rect x="120" y="22" width="1" height="3" fill="#DC8560" />
<rect x="121" y="22" width="1" height="3" fill="#4D231C" />
<rect x="134" y="22" width="1" height="3" fill="#4D231C" />
<rect x="135" y="22" width="1" height="3" fill="#DC8560" />
<rect x="152" y="22" width="1" height="3" fill="#DC8560" />
<rect x="153" y="22" width="1" height="3" fill="#4D231C" />
<rect x="166" y="22" width="1" height="3" fill="#4D231C" />
<rect x="167" y="22" width="1" height="3" fill="#DC8560" />
<rect x="184" y="22" width="1" height="3" fill="#DC8560" />
<rect x="185" y="22" width="1" height="3" fill="#4D231C" />
<rect x="8" y="23" width="2" height="2" fill="#622D24" />
<rect x="10" y="23" width="12" height="1" fill="#DC8560" />
<rect x="22" y="23" width="2" height="2" fill="#622D24" />
<rect x="40" y="23" width="2" height="2" fill="#622D24" />
<rect x="42" y="23" width="12" height="1" fill="#DC8560" />
<rect x="54" y="23" width="2" height="2" fill="#622D24" />
<rect x="72" y="23" width="2" height="2" fill="#622D24" />
<rect x="74" y="23" width="12" height="1" fill="#DC8560" />
<rect x="86" y="23" width="2" height="2" fill="#622D24" />
<rect x="104" y="23" width="2" height="2" fill="#622D24" />
<rect x="106" y="23" width="12" height="1" fill="#DC8560" />
<rect x="118" y="23" width="2" height="2" fill="#622D24" />
<rect x="136" y="23" width="2" height="2" fill="#622D24" />
<rect x="138" y="23" width="12" height="1" fill="#DC8560" />
<rect x="150" y="23" width="2" height="2" fill="#622D24" />
<rect x="168" y="23" width="2" height="2" fill="#622D24" />
<rect x="170" y="23" width="12" height="1" fill="#DC8560" />
<rect x="182" y="23" width="2" height="2" fill="#622D24" />
<rect x="10" y="24" width="1" height="2" fill="#622D24" />
<rect x="11" y="24" width="10" height="1" fill="#8C554B" />
<rect x="21" y="24" width="1" height="2" fill="#622D24" />
<rect x="42" y="24" width="1" height="2" fill="#622D24" />
<rect x="43" y="24" width="10" height="1" fill="#8C554B" />
<rect x="53" y="24" width="1" height="2" fill="#622D24" />
<rect x="74" y="24" width="1" height="2" fill="#622D24" />
<rect x="75" y="24" width="10" height="1" fill="#8C554B" />
<rect x="85" y="24" width="1" height="2" fill="#622D24" />
<rect x="106" y="24" width="1" height="2" fill="#622D24" />
<rect x="107" y="24" width="10" height="1" fill="#8C554B" />
<rect x="117" y="24" width="1" height="2" fill="#622D24" />
<rect x="138" y="24" width="1" height="2" fill="#622D24" />
<rect x="139" y="24" width="10" height="1" fill="#8C554B" />
<rect x="149" y="24" width="1" height="2" fill="#622D24" />
<rect x="170" y="24" width="1" height="2" fill="#622D24" />
<rect x="171" y="24" width="10" height="1" fill="#8C554B" />
<rect x="181" y="24" width="1" height="2" fill="#622D24" />
<rect x="7" y="25" width="1" height="1" fill="#4D231C" />
<rect x="8" y="25" width="1" height="1" fill="#DC8560" />
<rect x="9" y="25" width="1" height="1" fill="#622D24" />
<rect x="11" y="25" width="10" height="1" fill="#622D24" />
<rect x="22" y="25" width="1" height="1" fill="#622D24" />
<rect x="23" y="25" width="1" height="1" fill="#DC8560" />
<rect x="24" y="25" width="1" height="1" fill="#4D231C" />
<rect x="39" y="25" width="1" height="1" fill="#4D231C" />
<rect x="40" y="25" width="1" height="1" fill="#DC8560" />
<rect x="41" y="25" width="1" height="1" fill="#622D24" />
<rect x="43" y="25" width="10" height="1" fill="#622D24" />
<rect x="54" y="25" width="1" height="1" fill="#622D24" />
<rect x="55" y="25" width="1" height="1" fill="#DC8560" />
<rect x="56" y="25" width="1" height="1" fill="#4D231C" />
<rect x="71" y="25" width="1" height="1" fill="#4D231C" />
<rect x="72" y="25" width="1" height="1" fill="#DC8560" />
<rect x="73" y="25" width="1" height="1" fill="#622D24" />
<rect x="75" y="25" width="10" height="1" fill="#622D24" />
<rect x="86" y="25" width="1" height="1" fill="#622D24" />
<rect x="87" y="25" width="1" height="1" fill="#DC8560" />
<rect x="88" y="25" width="1" height="1" fill="#4D231C" />
<rect x="103" y="25" width="1" height="1" fill="#4D231C" />
<rect x="104" y="25" width="1" height="1" fill="#DC8560" />
<rect x="105" y="25" width="1" height="1" fill="#622D24" />
<rect x="107" y="25" width="10" height="1" fill="#622D24" />
<rect x="118" y="25" width="1" height="1" fill="#622D24" />
<rect x="119" y="25" width="1" height="1" fill="#DC8560" />
<rect x="120" y="25" width="1" height="1" fill="#4D231C" />
<rect x="135" y="25" width="1" height="1" fill="#4D231C" />
<rect x="136" y="25" width="1" height="1" fill="#DC8560" />
<rect x="137" y="25" width="1" height="1" fill="#622D24" />
<rect x="139" y="25" width="10" height="1" fill="#622D24" />
<rect x="150" y="25" width="1" height="1" fill="#622D24" />
<rect x="151" y="25" width="1" height="1" fill="#DC8560" />
<rect x="152" y="25" width="1" height="1" fill="#4D231C" />
<rect x="167" y="25" width="1" height="1" fill="#4D231C" />
<rect x="168" y="25" width="1" height="1" fill="#DC8560" />
<rect x="169" y="25" width="1" height="1" fill="#622D24" />
<rect x="171" y="25" width="10" height="1" fill="#622D24" />
<rect x="182" y="25" width="1" height="1" fill="#622D24" />
<rect x="183" y="25" width="1" height="1" fill="#DC8560" />
<rect x="184" y="25" width="1" height="1" fill="#4D231C" />
<rect x="8" y="26" width="1" height="1" fill="#4D231C" />
<rect x="9" y="26" width="14" height="1" fill="#DC8560" />
<rect x="23" y="26" width="1" height="1" fill="#4D231C" />
<rect x="40" y="26" width="1" height="1" fill="#4D231C" />
<rect x="41" y="26" width="14" height="1" fill="#DC8560" />
<rect x="55" y="26" width="1" height="1" fill="#4D231C" />
<rect x="72" y="26" width="1" height="1" fill="#4D231C" />
<rect x="73" y="26" width="14" height="1" fill="#DC8560" />
<rect x="87" y="26" width="1" height="1" fill="#4D231C" />
<rect x="104" y="26" width="1" height="1" fill="#4D231C" />
<rect x="105" y="26" width="14" height="1" fill="#DC8560" />
<rect x="119" y="26" width="1" height="1" fill="#4D231C" />
<rect x="136" y="26" width="1" height="1" fill="#4D231C" />
<rect x="137" y="26" width="14" height="1" fill="#DC8560" />
<rect x="151" y="26" width="1" height="1" fill="#4D231C" />
<rect x="168" y="26" width="1" height="1" fill="#4D231C" />
<rect x="169" y="26" width="14" height="1" fill="#DC8560" />
<rect x="183" y="26" width="1" height="1" fill="#4D231C" />
<rect x="9" y="27" width="14" height="1" fill="#4D231C" />
<rect x="41" y="27" width="14" height="1" fill="#4D231C" />
<rect x="73" y="27" width="14" height="1" fill="#4D231C" />
<rect x="105" y="27" width="14" height="1" fill="#4D231C" />
<rect x="137" y="27" width="14" height="1" fill="#4D231C" />
<rect x="169" y="27" width="14" height="1" fill="#4D231C" />
</svg>